<mxfile host="app.diagrams.net" modified="2023-03-09T04:00:09.123Z" agent="5.0 (Windows NT 10.0; Win64; x64) AppleWebKit/537.36 (KHTML, like Gecko) Chrome/108.0.0.0 Safari/537.36" etag="dLJ1qvgsWihv7Lhgqp1m" version="21.0.2" type="github">
  <diagram name="第 1 页" id="4EB1HCYksmgoYwVoK6EX">
    <mxGraphModel dx="1434" dy="764" grid="1" gridSize="10" guides="1" tooltips="1" connect="1" arrows="1" fold="1" page="1" pageScale="1" pageWidth="827" pageHeight="1169" math="0" shadow="0">
      <root>
        <mxCell id="0" />
        <mxCell id="1" parent="0" />
        <mxCell id="HfKupBysuvRHOUU3wPNk-1" value="" style="endArrow=classic;html=1;rounded=0;" parent="1" edge="1">
          <mxGeometry width="50" height="50" relative="1" as="geometry">
            <mxPoint x="440" y="400" as="sourcePoint" />
            <mxPoint x="440" y="10" as="targetPoint" />
          </mxGeometry>
        </mxCell>
        <mxCell id="HfKupBysuvRHOUU3wPNk-2" value="" style="endArrow=classic;html=1;rounded=0;" parent="1" edge="1">
          <mxGeometry width="50" height="50" relative="1" as="geometry">
            <mxPoint x="400" y="360" as="sourcePoint" />
            <mxPoint x="1040" y="360" as="targetPoint" />
          </mxGeometry>
        </mxCell>
        <mxCell id="HfKupBysuvRHOUU3wPNk-10" value="&lt;b&gt;&lt;font style=&quot;font-size: 15px;&quot;&gt;P&lt;/font&gt;&lt;/b&gt;" style="text;html=1;align=center;verticalAlign=middle;resizable=0;points=[];autosize=1;strokeColor=none;fillColor=none;" parent="1" vertex="1">
          <mxGeometry x="570" y="250" width="30" height="30" as="geometry" />
        </mxCell>
        <mxCell id="HfKupBysuvRHOUU3wPNk-11" value="&lt;b&gt;&lt;font style=&quot;font-size: 15px;&quot;&gt;v&lt;/font&gt;&lt;/b&gt;" style="text;html=1;align=center;verticalAlign=middle;resizable=0;points=[];autosize=1;strokeColor=none;fillColor=none;" parent="1" vertex="1">
          <mxGeometry x="550" y="270" width="30" height="30" as="geometry" />
        </mxCell>
        <mxCell id="HfKupBysuvRHOUU3wPNk-12" value="&lt;span style=&quot;font-size: 15px;&quot;&gt;&lt;b&gt;x&lt;/b&gt;&lt;/span&gt;" style="text;html=1;align=center;verticalAlign=middle;resizable=0;points=[];autosize=1;strokeColor=none;fillColor=none;" parent="1" vertex="1">
          <mxGeometry x="840" y="90" width="30" height="30" as="geometry" />
        </mxCell>
        <mxCell id="HfKupBysuvRHOUU3wPNk-14" value="" style="endArrow=classic;html=1;rounded=0;" parent="1" edge="1">
          <mxGeometry width="50" height="50" relative="1" as="geometry">
            <mxPoint x="600" y="280" as="sourcePoint" />
            <mxPoint x="560" y="270" as="targetPoint" />
          </mxGeometry>
        </mxCell>
        <mxCell id="HfKupBysuvRHOUU3wPNk-16" value="" style="endArrow=classic;html=1;rounded=0;exitX=1.033;exitY=1;exitDx=0;exitDy=0;exitPerimeter=0;entryX=-0.1;entryY=0.967;entryDx=0;entryDy=0;entryPerimeter=0;" parent="1" source="HfKupBysuvRHOUU3wPNk-10" target="HfKupBysuvRHOUU3wPNk-12" edge="1">
          <mxGeometry width="50" height="50" relative="1" as="geometry">
            <mxPoint x="680" y="320" as="sourcePoint" />
            <mxPoint x="810" y="140" as="targetPoint" />
          </mxGeometry>
        </mxCell>
      </root>
    </mxGraphModel>
  </diagram>
</mxfile>
